<svg width="129" height="19" viewBox="0 0 129 19" fill="none" xmlns="http://www.w3.org/2000/svg">
    <path d="M9.9375 10.4648H2.77734V18H0.527344V0.9375H11.0977V2.78906H2.77734V8.625H9.9375V10.4648ZM12.6211 11.543C12.6211 10.3008 12.8633 9.18359 13.3477 8.19141C13.8398 7.19922 14.5195 6.43359 15.3867 5.89453C16.2617 5.35547 17.2578 5.08594 18.375 5.08594C20.1016 5.08594 21.4961 5.68359 22.5586 6.87891C23.6289 8.07422 24.1641 9.66406 24.1641 11.6484V11.8008C24.1641 13.0352 23.9258 14.1445 23.4492 15.1289C22.9805 16.1055 22.3047 16.8672 21.4219 17.4141C20.5469 17.9609 19.5391 18.2344 18.3984 18.2344C16.6797 18.2344 15.2852 17.6367 14.2148 16.4414C13.1523 15.2461 12.6211 13.6641 12.6211 11.6953V11.543ZM14.8008 11.8008C14.8008 13.207 15.125 14.3359 15.7734 15.1875C16.4297 16.0391 17.3047 16.4648 18.3984 16.4648C19.5 16.4648 20.375 16.0352 21.0234 15.1758C21.6719 14.3086 21.9961 13.0977 21.9961 11.543C21.9961 10.1523 21.6641 9.02734 21 8.16797C20.3438 7.30078 19.4688 6.86719 18.375 6.86719C17.3047 6.86719 16.4414 7.29297 15.7852 8.14453C15.1289 8.99609 14.8008 10.2148 14.8008 11.8008ZM33.0117 7.26562C32.6836 7.21094 32.3281 7.18359 31.9453 7.18359C30.5234 7.18359 29.5586 7.78906 29.0508 9V18H26.8828V5.32031H28.9922L29.0273 6.78516C29.7383 5.65234 30.7461 5.08594 32.0508 5.08594C32.4727 5.08594 32.793 5.14062 33.0117 5.25V7.26562ZM69.7852 18H67.6172V5.32031H69.7852V18ZM67.4414 1.95703C67.4414 1.60547 67.5469 1.30859 67.7578 1.06641C67.9766 0.824219 68.2969 0.703125 68.7188 0.703125C69.1406 0.703125 69.4609 0.824219 69.6797 1.06641C69.8984 1.30859 70.0078 1.60547 70.0078 1.95703C70.0078 2.30859 69.8984 2.60156 69.6797 2.83594C69.4609 3.07031 69.1406 3.1875 68.7188 3.1875C68.2969 3.1875 67.9766 3.07031 67.7578 2.83594C67.5469 2.60156 67.4414 2.30859 67.4414 1.95703ZM75.3164 5.32031L75.3867 6.91406C76.3555 5.69531 77.6211 5.08594 79.1836 5.08594C81.8633 5.08594 83.2148 6.59766 83.2383 9.62109V18H81.0703V9.60938C81.0625 8.69531 80.8516 8.01953 80.4375 7.58203C80.0312 7.14453 79.3945 6.92578 78.5273 6.92578C77.8242 6.92578 77.207 7.11328 76.6758 7.48828C76.1445 7.86328 75.7305 8.35547 75.4336 8.96484V18H73.2656V5.32031H75.3164ZM126.211 16.8633C126.211 16.4883 126.32 16.1758 126.539 15.9258C126.766 15.6758 127.102 15.5508 127.547 15.5508C127.992 15.5508 128.328 15.6758 128.555 15.9258C128.789 16.1758 128.906 16.4883 128.906 16.8633C128.906 17.2227 128.789 17.5234 128.555 17.7656C128.328 18.0078 127.992 18.1289 127.547 18.1289C127.102 18.1289 126.766 18.0078 126.539 17.7656C126.32 17.5234 126.211 17.2227 126.211 16.8633ZM126.223 6.51562C126.223 6.14062 126.332 5.82812 126.551 5.57812C126.777 5.32812 127.113 5.20312 127.559 5.20312C128.004 5.20312 128.34 5.32812 128.566 5.57812C128.801 5.82812 128.918 6.14062 128.918 6.51562C128.918 6.875 128.801 7.17578 128.566 7.41797C128.34 7.66016 128.004 7.78125 127.559 7.78125C127.113 7.78125 126.777 7.66016 126.551 7.41797C126.332 7.17578 126.223 6.875 126.223 6.51562Z" fill="#FF4141" />
    <path d="M43.7227 18H41.4727V0.9375H43.7227V18ZM59.2852 2.78906H53.8008V18H51.5625V2.78906H46.0898V0.9375H59.2852V2.78906Z" fill="#171717" />
    <path d="M94.5117 5.32031L94.582 6.91406C95.5508 5.69531 96.8164 5.08594 98.3789 5.08594C101.059 5.08594 102.41 6.59766 102.434 9.62109V18H100.266V9.60938C100.258 8.69531 100.047 8.01953 99.6328 7.58203C99.2266 7.14453 98.5898 6.92578 97.7227 6.92578C97.0195 6.92578 96.4023 7.11328 95.8711 7.48828C95.3398 7.86328 94.9258 8.35547 94.6289 8.96484V18H92.4609V5.32031H94.5117ZM110.965 18.2344C109.246 18.2344 107.848 17.6719 106.77 16.5469C105.691 15.4141 105.152 13.9023 105.152 12.0117V11.6133C105.152 10.3555 105.391 9.23438 105.867 8.25C106.352 7.25781 107.023 6.48438 107.883 5.92969C108.75 5.36719 109.688 5.08594 110.695 5.08594C112.344 5.08594 113.625 5.62891 114.539 6.71484C115.453 7.80078 115.91 9.35547 115.91 11.3789V12.2812H107.32C107.352 13.5312 107.715 14.543 108.41 15.3164C109.113 16.082 110.004 16.4648 111.082 16.4648C111.848 16.4648 112.496 16.3086 113.027 15.9961C113.559 15.6836 114.023 15.2695 114.422 14.7539L115.746 15.7852C114.684 17.418 113.09 18.2344 110.965 18.2344ZM110.695 6.86719C109.82 6.86719 109.086 7.1875 108.492 7.82812C107.898 8.46094 107.531 9.35156 107.391 10.5H113.742V10.3359C113.68 9.23438 113.383 8.38281 112.852 7.78125C112.32 7.17188 111.602 6.86719 110.695 6.86719ZM121.371 2.25V5.32031H123.738V6.99609H121.371V14.8594C121.371 15.3672 121.477 15.75 121.688 16.0078C121.898 16.2578 122.258 16.3828 122.766 16.3828C123.016 16.3828 123.359 16.3359 123.797 16.2422V18C123.227 18.1562 122.672 18.2344 122.133 18.2344C121.164 18.2344 120.434 17.9414 119.941 17.3555C119.449 16.7695 119.203 15.9375 119.203 14.8594V6.99609H116.895V5.32031H119.203V2.25H121.371Z" fill="#171717" />
</svg>
